<svg width="97" height="76" viewBox="0 0 97 76" fill="none" xmlns="http://www.w3.org/2000/svg">
<g id="Frame 34700">
<g id="Logistic">
<path id="Vector" d="M70.1721 61.4363C66.6587 62.3341 64.5382 65.9102 65.436 69.4237C66.3339 72.9372 69.9099 75.0576 73.4234 74.1598C76.9369 73.262 79.0573 69.6859 78.1595 66.1724C77.2617 62.6589 73.6856 60.5385 70.1721 61.4363Z" fill="#0086C7"/>
<path id="Rectangle 8" d="M88.5996 54.1533C88.5996 55.6803 87.3618 56.9182 85.8348 56.9182L20.7804 56.9181C19.2535 56.9181 18.0156 55.6803 18.0156 54.1533L18.0156 18.7647C18.0156 17.2377 19.2535 15.9999 20.7804 15.9999L85.8348 15.9999C87.3618 15.9999 88.5996 17.2377 88.5996 18.7647L88.5996 54.1533Z" fill="#0086C7"/>
<g id="Vector_2" filter="url(#filter0_bdii_1286_3980)">
<path d="M84.9331 66.1968C84.9331 67.0804 84.2167 67.7968 83.3331 67.7968H59.4477C58.564 67.7968 57.8477 67.0804 57.8477 66.1968V42.3114C57.8477 41.4277 58.564 40.7114 59.4477 40.7114H74.8923C75.3109 40.7114 75.7129 40.8754 76.0119 41.1684L84.4527 49.4369C84.7599 49.7378 84.9331 50.1498 84.9331 50.5799V66.1968Z" fill="#2B66FF" fill-opacity="0.15" shape-rendering="crispEdges"/>
</g>
<g id="Vector_3" filter="url(#filter1_bdii_1286_3980)">
<path d="M59.4873 22.6556H8.59961V67.7979H59.4873V22.6556Z" fill="#2B66FF" fill-opacity="0.2" shape-rendering="crispEdges"/>
<path d="M8.79961 67.5979V22.8556H59.2873V67.5979H8.79961Z" stroke="url(#paint0_linear_1286_3980)" stroke-width="0.4" stroke-miterlimit="2.41327" shape-rendering="crispEdges"/>
</g>
<path id="Vector_4" d="M25.0154 73.5442C28.6418 73.5442 31.5815 70.6045 31.5815 66.9781C31.5815 63.3517 28.6418 60.4119 25.0154 60.4119C21.389 60.4119 18.4492 63.3517 18.4492 66.9781C18.4492 70.6045 21.389 73.5442 25.0154 73.5442Z" fill="#0086C7"/>
</g>
</g>
<defs>
<filter id="filter0_bdii_1286_3980" x="45.8477" y="28.7114" width="51.085" height="51.0854" filterUnits="userSpaceOnUse" color-interpolation-filters="sRGB">
<feFlood flood-opacity="0" result="BackgroundImageFix"/>
<feGaussianBlur in="BackgroundImageFix" stdDeviation="6"/>
<feComposite in2="SourceAlpha" operator="in" result="effect1_backgroundBlur_1286_3980"/>
<feColorMatrix in="SourceAlpha" type="matrix" values="0 0 0 0 0 0 0 0 0 0 0 0 0 0 0 0 0 0 127 0" result="hardAlpha"/>
<feOffset dx="1.6" dy="-1.6"/>
<feGaussianBlur stdDeviation="4.8"/>
<feComposite in2="hardAlpha" operator="out"/>
<feColorMatrix type="matrix" values="0 0 0 0 0 0 0 0 0 0.819608 0 0 0 0 1 0 0 0 0.25 0"/>
<feBlend mode="color-burn" in2="effect1_backgroundBlur_1286_3980" result="effect2_dropShadow_1286_3980"/>
<feBlend mode="normal" in="SourceGraphic" in2="effect2_dropShadow_1286_3980" result="shape"/>
<feColorMatrix in="SourceAlpha" type="matrix" values="0 0 0 0 0 0 0 0 0 0 0 0 0 0 0 0 0 0 127 0" result="hardAlpha"/>
<feOffset dy="-1.6"/>
<feGaussianBlur stdDeviation="4"/>
<feComposite in2="hardAlpha" operator="arithmetic" k2="-1" k3="1"/>
<feColorMatrix type="matrix" values="0 0 0 0 0 0 0 0 0 0.64 0 0 0 0 1 0 0 0 0.25 0"/>
<feBlend mode="normal" in2="shape" result="effect3_innerShadow_1286_3980"/>
<feColorMatrix in="SourceAlpha" type="matrix" values="0 0 0 0 0 0 0 0 0 0 0 0 0 0 0 0 0 0 127 0" result="hardAlpha"/>
<feOffset dx="-1.6" dy="1.6"/>
<feGaussianBlur stdDeviation="4"/>
<feComposite in2="hardAlpha" operator="arithmetic" k2="-1" k3="1"/>
<feColorMatrix type="matrix" values="0 0 0 0 1 0 0 0 0 1 0 0 0 0 1 0 0 0 0.3 0"/>
<feBlend mode="normal" in2="effect3_innerShadow_1286_3980" result="effect4_innerShadow_1286_3980"/>
</filter>
<filter id="filter1_bdii_1286_3980" x="-3.40039" y="10.6556" width="74.8877" height="69.1423" filterUnits="userSpaceOnUse" color-interpolation-filters="sRGB">
<feFlood flood-opacity="0" result="BackgroundImageFix"/>
<feGaussianBlur in="BackgroundImageFix" stdDeviation="6"/>
<feComposite in2="SourceAlpha" operator="in" result="effect1_backgroundBlur_1286_3980"/>
<feColorMatrix in="SourceAlpha" type="matrix" values="0 0 0 0 0 0 0 0 0 0 0 0 0 0 0 0 0 0 127 0" result="hardAlpha"/>
<feOffset dx="1.6" dy="-1.6"/>
<feGaussianBlur stdDeviation="4.8"/>
<feComposite in2="hardAlpha" operator="out"/>
<feColorMatrix type="matrix" values="0 0 0 0 0 0 0 0 0 0.819608 0 0 0 0 1 0 0 0 0.25 0"/>
<feBlend mode="color-burn" in2="effect1_backgroundBlur_1286_3980" result="effect2_dropShadow_1286_3980"/>
<feBlend mode="normal" in="SourceGraphic" in2="effect2_dropShadow_1286_3980" result="shape"/>
<feColorMatrix in="SourceAlpha" type="matrix" values="0 0 0 0 0 0 0 0 0 0 0 0 0 0 0 0 0 0 127 0" result="hardAlpha"/>
<feOffset dy="-1.6"/>
<feGaussianBlur stdDeviation="4"/>
<feComposite in2="hardAlpha" operator="arithmetic" k2="-1" k3="1"/>
<feColorMatrix type="matrix" values="0 0 0 0 0 0 0 0 0 0.64 0 0 0 0 1 0 0 0 0.25 0"/>
<feBlend mode="normal" in2="shape" result="effect3_innerShadow_1286_3980"/>
<feColorMatrix in="SourceAlpha" type="matrix" values="0 0 0 0 0 0 0 0 0 0 0 0 0 0 0 0 0 0 127 0" result="hardAlpha"/>
<feOffset dx="-1.6" dy="1.6"/>
<feGaussianBlur stdDeviation="4"/>
<feComposite in2="hardAlpha" operator="arithmetic" k2="-1" k3="1"/>
<feColorMatrix type="matrix" values="0 0 0 0 1 0 0 0 0 1 0 0 0 0 1 0 0 0 0.3 0"/>
<feBlend mode="normal" in2="effect3_innerShadow_1286_3980" result="effect4_innerShadow_1286_3980"/>
</filter>
<linearGradient id="paint0_linear_1286_3980" x1="34.0435" y1="22.6556" x2="34.0435" y2="67.7979" gradientUnits="userSpaceOnUse">
<stop stop-color="white" stop-opacity="0.2"/>
<stop offset="1" stop-color="white"/>
</linearGradient>
</defs>
</svg>
